# xmcd
#
# Track frame offsets: 
#        150
#        12377
#        35963
#        50324
#        63084
#        73097
#        94743
#        108256
#        120573
#        151377
#        169767
#        183081
#        198569
#        210535
#        222802
#        237939
#        251096
#        263529
#        293960
#
# Disc length: 4097 seconds
#
# Revision: 0
# Processed by: cddbd v1.5.2PL0 Copyright (c) Steve Scherf et al.
# Submitted via: ExactAudioCopyFreeDBPlugin 1.0
#
DISCID=100fff13
DTITLE=Various Artist - Essential Blaxploitation CD2
DYEAR=2012
DGENRE=Funk
TTITLE0=The Impressions - Mister Keyes
TTITLE1=Mavis Staples - Chocolate City
TTITLE2=Sir Joe Quarterman and Free Soul - (I Got) So Much Trouble In My
TTITLE2=Mind
TTITLE3=Ground Hog - Bumpin' - Part 1
TTITLE4=Joe Tex - I Gotcha
TTITLE5=Lee Dorsey - Yes, We Can - Part 1
TTITLE6=Goliath - Roving Minstrel
TTITLE7=The Meters - Groovy Lady
TTITLE8=Billy Butler - The Saga Of Saddie Lee
TTITLE9=Curtis Mayfield - A Heavy Dude
TTITLE10=Gil Scott-Heron And Brian Jackson - Your Daddy Loves You
TTITLE11=Maceo and All The King's Men - Southwick
TTITLE12=Jesse Anderson - Readings In Astrology
TTITLE13=Betty Harris - There's A Break In The Road
TTITLE14=Willie West - Fair Child
TTITLE15=The Meters - Pungee
TTITLE16=Warren Lee - Underdog Backstreet
TTITLE17=The Staple Singers - After Sex
TTITLE18=Lee Dorsey - Freedom For The Stallion
EXTD=
EXTT0=
EXTT1=
EXTT2=
EXTT3=
EXTT4=
EXTT5=
EXTT6=
EXTT7=
EXTT8=
EXTT9=
EXTT10=
EXTT11=
EXTT12=
EXTT13=
EXTT14=
EXTT15=
EXTT16=
EXTT17=
EXTT18=
PLAYORDER=
